<?xml version="1.0" standalone="no"?><!DOCTYPE svg PUBLIC "-//W3C//DTD SVG 1.1//EN" "http://www.w3.org/Graphics/SVG/1.1/DTD/svg11.dtd"><svg t="1776684178778" class="icon" viewBox="0 0 1024 1024" version="1.1" xmlns="http://www.w3.org/2000/svg" p-id="11354" xmlns:xlink="http://www.w3.org/1999/xlink" width="200" height="200"><path d="M0 0m204.8 0l614.4 0q204.8 0 204.8 204.8l0 614.4q0 204.8-204.8 204.8l-614.4 0q-204.8 0-204.8-204.8l0-614.4q0-204.8 204.8-204.8Z" fill="#EEF1F6" p-id="11355"></path><path d="M639.0784 269.653333c11.946667 0 23.04 6.007467 29.4912 15.9744l60.962133 93.866667a47.786667 47.786667 0 0 1 7.748267 26.146133v279.6544c0 19.285333-15.735467 34.884267-35.157333 34.9184H321.877333a35.054933 35.054933 0 0 1-35.157333-34.9184v-279.6544a47.786667 47.786667 0 0 1 7.748267-26.146133l60.962133-93.866667c6.485333-9.966933 17.6128-16.008533 29.525333-15.9744h254.122667z m-210.056533 142.574934H316.8256v273.066666c0 2.184533 1.467733 4.027733 3.447467 4.7104l1.604266 0.238934h380.245334a4.983467 4.983467 0 0 0 5.0176-4.949334v-273.066666h-104.96l0.034133 57.0368c0 5.802667-2.2528 11.3664-6.178133 15.530666l-2.594134 2.321067a22.869333 22.869333 0 0 1-19.524266 4.130133l-23.074134-6.144-29.2864 7.8848a23.005867 23.005867 0 0 1-11.844266 0l-28.091734-7.918933-24.234666 6.075733a22.869333 22.869333 0 0 1-19.5584-4.096 22.596267 22.596267 0 0 1-8.8064-17.851733v-56.968533z m239.274666 186.231466a15.018667 15.018667 0 0 1 15.018667 14.984534 15.018667 15.018667 0 0 1-15.018667 14.984533h-81.1008a15.018667 15.018667 0 0 1-15.086933-14.984533 15.018667 15.018667 0 0 1 15.086933-14.984534h81.066667z m-96.256-184.797866h-112.913066v46.148266l16.110933-3.9936a22.869333 22.869333 0 0 1 7.645867-0.6144l3.7888 0.682667 28.0576 7.8848 29.252266-7.850667c3.754667-1.024 7.68-1.058133 11.434667-0.136533l16.622933 4.061867v-46.1824z m-123.0848-114.039467h-64a4.983467 4.983467 0 0 0-4.1984 2.286933L328.533333 382.293333h102.980267l17.442133-82.670933z m190.088534 0h-56.797867l17.408 82.6368h95.778133l-52.189866-80.349867a4.983467 4.983467 0 0 0-2.56-1.979733l-1.6384-0.273067z m-87.586134 0h-71.714133l-17.1008 81.1008h105.8816l-17.066667-81.1008z" fill="#2c2c2c" p-id="11356" data-spm-anchor-id="a313x.search_index.0.i9.25a33a81APpBWV" class="selected"></path></svg>